# xmcd
#
# Track frame offsets: 
#        300
#        13350
#        25373
#        40643
#        56289
#        74505
#        88205
#        104219
#        115076
#        123433
#        138212
#        149213
#        159701
#        180180
#        193037
#        205985
#        220131
#        235368
#
# Disc length: 3275 seconds
#
# Revision: 1
# Processed by: cddbd v1.5.2PL0 Copyright (c) Steve Scherf et al.
# Submitted via: ExactAudioCopy v0.95b1
#
DISCID=150cc712
DTITLE=Игорь Старосельцев - Девушка из Нагасаки (Любимые песни нашего 
DTITLE=двора 2)
DYEAR=2002
DGENRE=Soul
TTITLE0=Вьюжится от холода ночь...
TTITLE1=В кейптаунском порту
TTITLE2=Плавленый сырок
TTITLE3=Вьюга
TTITLE4=Помню двор занесенный...
TTITLE5=Они любили друг друга крепко
TTITLE6=Чужая милая
TTITLE7=Мы лежим с тобой в маленьком гробике
TTITLE8=Она была первой
TTITLE9=Девушка из Нагасаки
TTITLE10=Ну что же, брось...
TTITLE11=Соловушка где то в саду(Я тебя любил)
TTITLE12=В оркестре играют гитара и скрипка...
TTITLE13=Цыпленок. Мы анархисты
TTITLE14=У павильона "Пиво-воды"
TTITLE15=Поспели вишни...
TTITLE16=Одену  я черную шляпу
TTITLE17=Расцвела сирень в моем садочке...
EXTD=
EXTT0=
EXTT1=
EXTT2=
EXTT3=
EXTT4=
EXTT5=
EXTT6=
EXTT7=
EXTT8=
EXTT9=
EXTT10=
EXTT11=
EXTT12=
EXTT13=
EXTT14=
EXTT15=
EXTT16=
EXTT17=
PLAYORDER=
